<?xml version="1.0" encoding="utf-8"?>
<!-- Generator: Adobe Illustrator 24.3.0, SVG Export Plug-In . SVG Version: 6.00 Build 0)  -->
<svg version="1.1" id="Capa_1" xmlns="http://www.w3.org/2000/svg" xmlns:xlink="http://www.w3.org/1999/xlink" x="0px" y="0px"
	 viewBox="0 0 45 45" style="enable-background:new 0 0 45 45;" xml:space="preserve">
<style type="text/css">
	.st0{fill:#0070BA;}
	.st1{fill:#E3134D;}
	.st2{fill:#FEC20A;}
	.st3{fill:#70AF3D;}
	.st4{fill:#9B156E;}
	.st5{fill:#FFFFFF;}
</style>
<g>
	<g>
		<rect x="15.6" y="4.2" class="st0" width="27" height="21.6"/>
		<rect x="2.6" y="15.4" class="st1" width="15.7" height="26.1"/>
		<path class="st2" d="M27.9,15.4c0,7-5.6,12.6-12.6,12.6S2.6,22.4,2.6,15.4c0-7,5.6-12.6,12.6-12.6S27.9,8.5,27.9,15.4z"/>
		<ellipse class="st3" cx="25.7" cy="25.9" rx="17" ry="17"/>
		<path class="st4" d="M29.5,30.4c0,6.2-5,11.2-11.2,11.2s-11.2-5-11.2-11.2s5-11.2,11.2-11.2S29.5,24.3,29.5,30.4z"/>
	</g>
	<path class="st5" d="M29.7,11L29.7,11L29.7,11c-5.4,0-8.9,3.9-8.9,8.6s3,8.6,8.9,8.6l0,0l0,0c5.8,0,8.9-3.9,8.9-8.6
		C38.6,14.9,35.1,11,29.7,11z M29.7,23c-1.6,0-3-1.4-3-3.2c0-1.8,1.3-3.2,3-3.2s3,1.4,3,3.2C32.7,21.5,31.4,23,29.7,23z M21.1,27
		c-1.4,0.9-3.2,1.4-5.3,1.4l0,0l0,0c-6.1,0.1-9-3.9-9-8.8s3.5-8.8,9-8.8l0,0l0,0c2.2,0,4,0.6,5.5,1.7c0.1,0.1,0.2,0.3,0,1L20,17.3
		c0,0-0.2,0.7-0.8,0.3c-0.6-0.4-1.6-1.3-3.1-1.3s-3.2,1.2-3.2,3.5s2.5,3.1,3.3,3.1s2-0.3,2.7-1c0,0,0.5-0.6,0.8-0.1l1.4,4
		C21.1,25.9,21.6,26.7,21.1,27z"/>
	<path class="st5" d="M12.7,30.6L12.7,30.6c-1.3,0-2.2,0.9-2.2,2.1c0,1.2,0.7,2.1,2.2,2.1l0,0c1.4,0,2.2-0.9,2.2-2.1
		C14.8,31.5,14,30.6,12.7,30.6z M12.7,33.5c-0.4,0-0.7-0.4-0.7-0.8s0.3-0.8,0.7-0.8c0.4,0,0.7,0.4,0.7,0.8
		C13.4,33.2,13,33.5,12.7,33.5z M20.4,30.6L20.4,30.6c-1.3,0-2.2,0.9-2.2,2.1c0,1.2,0.7,2.1,2.2,2.1l0,0c1.4,0,2.2-0.9,2.2-2.1
		C22.5,31.5,21.7,30.6,20.4,30.6z M20.4,33.5c-0.4,0-0.7-0.4-0.7-0.8s0.3-0.8,0.7-0.8c0.4,0,0.7,0.4,0.7,0.8S20.8,33.5,20.4,33.5z
		 M10.2,34.2c0,0,0.1,0.2,0,0.3c-0.3,0.2-0.8,0.4-1.3,0.4l0,0c-1.5,0-2.2-1-2.2-2.1c0-1.2,0.9-2.1,2.2-2.1l0,0c0.5,0,1,0.2,1.3,0.4
		c0,0,0,0.1,0,0.2l-0.3,0.9c0,0-0.1,0.2-0.2,0.1c-0.1-0.1-0.4-0.3-0.8-0.3c-0.4,0-0.8,0.3-0.8,0.9c0,0.6,0.6,0.8,0.8,0.8
		s0.5-0.1,0.7-0.2c0,0,0.1-0.1,0.2,0L10.2,34.2z M17.8,33.5v1.2c0,0,0,0.1-0.1,0.1h-1c0,0-0.1,0-0.2,0h-0.3c0,0-0.1,0-0.2,0h-0.8
		c0,0-0.1,0-0.1-0.1v-4c0,0,0-0.1,0.1-0.1h1.3c0,0,0.1,0,0.1,0.1v2.7c0,0,0,0.1,0.1,0.1L17.8,33.5C17.8,33.4,17.8,33.5,17.8,33.5z
		 M27.5,30.7l0.6,4.1c0,0,0,0.1-0.1,0.1h-1.2c0,0-0.1,0-0.1-0.1l-0.2-1.9c0,0,0,0,0,0l-0.6,1.9c0,0-0.1,0.1-0.1,0.1h-0.3
		c0,0-0.1,0-0.2,0h-0.3c0,0-0.1,0-0.1-0.1l-0.6-1.9c0,0,0,0,0,0l-0.2,1.9c0,0,0,0.1-0.1,0.1h-1.2c0,0-0.1,0-0.1-0.1l0.6-4.1
		c0,0,0-0.1,0.1-0.1H24c0,0,0.1,0,0.2,0h0.4c0,0,0.1,0,0.2,0h0.1c0,0,0.1,0,0.1,0.1l0.5,2c0,0,0,0,0,0l0.5-2c0,0,0.1-0.1,0.1-0.1
		h0.1c0,0,0.1,0,0.2,0h0.4c0,0,0.1,0,0.2,0L27.5,30.7C27.5,30.6,27.5,30.6,27.5,30.7z M31.4,32.6c0.3-0.2,0.5-0.5,0.5-0.9
		c0-0.6-0.4-1-1-1.1v0h-2.3v4.2h2.3l0,0c0.6,0,1.2-0.5,1.2-1.2C32,33.2,31.7,32.8,31.4,32.6z M30,31.6h0.3l0,0h0
		c0.2,0,0.3,0.1,0.3,0.3c0,0.2-0.1,0.3-0.3,0.3h0l0,0H30V31.6z M30.3,33.8C30.3,33.8,30.2,33.8,30.3,33.8L30.3,33.8H30v-0.7h0.3l0,0
		h0c0.2,0,0.3,0.2,0.3,0.3S30.4,33.8,30.3,33.8z M33.9,30.7v4c0,0,0,0.1-0.1,0.1h-1.3c0,0-0.1,0-0.1-0.1v-4c0,0,0-0.1,0.1-0.1
		L33.9,30.7C33.8,30.6,33.9,30.7,33.9,30.7z M38.6,34.7l-1.3-4c0,0-0.1-0.1-0.1-0.1h0c0,0-0.1,0-0.2,0h-1.1c0,0-0.1,0-0.2,0h0
		c0,0-0.1,0-0.1,0.1l-1.3,4c0,0,0,0.1,0.1,0.1h1.3c0,0,0.1,0,0.1-0.1l0.1-0.4c0,0,0.1-0.1,0.1-0.1h0.8c0,0,0.1,0,0.1,0.1l0.1,0.4
		c0,0,0.1,0.1,0.1,0.1L38.6,34.7C38.6,34.8,38.6,34.8,38.6,34.7z M36.2,33.2l0.3-1.2l0.3,1.2H36.2z"/>
</g>
</svg>
